<svg xmlns="http://www.w3.org/2000/svg" aria-hidden="true" style="position:absolute;width:0;height:0;overflow:hidden">
<defs>

<symbol id="openeye" viewBox="0 0 24 24">
<path d="M.106 11.553a.997.997 0 0 0 0 .894s.396.789 1.12 1.843a20.553 20.553 0 0 0 1.757 2.218c.894.979 2.004 1.987 3.319 2.8C7.897 20.294 9.808 21 12 21s4.103-.706 5.698-1.692c1.315-.813 2.425-1.821 3.319-2.8a20.678 20.678 0 0 0 1.757-2.218 17.468 17.468 0 0 0 1.12-1.843.997.997 0 0 0 0-.894s-.396-.789-1.12-1.843a20.553 20.553 0 0 0-1.757-2.218c-.894-.979-2.004-1.987-3.319-2.8C16.103 3.706 14.192 3 12 3s-4.103.706-5.698 1.692c-1.315.813-2.425 1.821-3.319 2.8A20.455 20.455 0 0 0 1.226 9.71a17.468 17.468 0 0 0-1.12 1.843zM2.14 12a18.575 18.575 0 0 1 2.319-3.159c.805-.881 1.775-1.756 2.894-2.448C8.703 5.559 10.254 5 12 5s3.297.559 4.646 1.393c1.119.692 2.089 1.567 2.894 2.448A18.701 18.701 0 0 1 21.859 12a18.575 18.575 0 0 1-2.319 3.159c-.805.881-1.775 1.756-2.894 2.448C15.297 18.441 13.746 19 12 19s-3.297-.559-4.646-1.393c-1.119-.692-2.089-1.567-2.894-2.448A18.701 18.701 0 0 1 2.14 12zM16 12c0-1.104-.449-2.106-1.172-2.828a3.994 3.994 0 0 0-5.656 0 3.994 3.994 0 0 0 0 5.656 3.994 3.994 0 0 0 5.656 0A3.994 3.994 0 0 0 16 12zm-2 0c0 .553-.223 1.051-.586 1.414S12.553 14 12 14s-1.051-.223-1.414-.586S10 12.553 10 12s.223-1.051.586-1.414S11.447 10 12 10s1.051.223 1.414.586S14 11.447 14 12z"/>
</symbol>

<symbol id="closeeye" viewBox="0 0 24 24">
<path d="M10.128 5.214A7.908 7.908 0 0 1 11.988 5c1.758 0 3.309.559 4.658 1.393 1.119.692 2.089 1.567 2.894 2.448a18.701 18.701 0 0 1 2.318 3.156 16.723 16.723 0 0 1-1.778 2.542 1 1 0 0 0 1.518 1.302 18.991 18.991 0 0 0 2.283-3.37 1 1 0 0 0 .013-.919s-.396-.789-1.12-1.843a20.553 20.553 0 0 0-1.757-2.218c-.894-.979-2.004-1.987-3.319-2.8C16.103 3.706 14.192 3 12.012 3a9.899 9.899 0 0 0-2.34.266 1 1 0 1 0 .456 1.948zm-.101 6.228 2.531 2.531a2.003 2.003 0 0 1-2.531-2.532zM5.983 7.397 8.536 9.95a3.993 3.993 0 0 0-.608 2.266c.036 1.022.463 2.033 1.271 2.785s1.846 1.107 2.868 1.071a3.991 3.991 0 0 0 1.984-.608l2.322 2.322A8.962 8.962 0 0 1 11.989 19c-1.734 0-3.285-.559-4.634-1.393-1.119-.692-2.089-1.567-2.894-2.448a18.701 18.701 0 0 1-2.317-3.155 17.275 17.275 0 0 1 3.841-4.607zm-5.69-5.69 4.271 4.271a19.34 19.34 0 0 0-4.445 5.549.999.999 0 0 0-.013.92s.396.789 1.12 1.843a20.553 20.553 0 0 0 1.757 2.218c.894.979 2.004 1.987 3.319 2.8C7.897 20.294 9.808 21 12.012 21a10.98 10.98 0 0 0 5.815-1.759l4.466 4.466a.999.999 0 1 0 1.414-1.414l-8.876-8.876-.007-.007-4.209-4.21-.024-.024L1.707.293A.999.999 0 1 0 .293 1.707z"/>
</symbol>

<symbol id="close" viewBox="0 0 32 32">
<path id="Vector" stroke="#1D1E21" stroke-linecap="round" stroke-linejoin="round" stroke-opacity="1" stroke-width="2" d="M24 8 8 24M8 8l16 16"/>
</symbol>

<symbol id="dashboard" viewBox="0 0 12 12">
<path id="Vector" d="M0.66 6.66L4.66 6.66C5.03 6.66 5.33 6.36 5.33 6L5.33 0.66C5.33 0.29 5.03 0 4.66 0L0.66 0C0.29 0 0 0.29 0 0.66L0 6C0 6.36 0.29 6.66 0.66 6.66ZM0.66 12L4.66 12C5.03 12 5.33 11.7 5.33 11.33L5.33 8.66C5.33 8.29 5.03 8 4.66 8L0.66 8C0.29 8 0 8.29 0 8.66L0 11.33C0 11.7 0.29 12 0.66 12ZM7.33 12L11.33 12C11.7 12 12 11.7 12 11.33L12 6C12 5.63 11.7 5.33 11.33 5.33L7.33 5.33C6.96 5.33 6.66 5.63 6.66 6L6.66 11.33C6.66 11.7 6.96 12 7.33 12ZM6.66 0.66L6.66 3.33C6.66 3.7 6.96 4 7.33 4L11.33 4C11.7 4 12 3.7 12 3.33L12 0.66C12 0.29 11.7 0 11.33 0L7.33 0C6.96 0 6.66 0.29 6.66 0.66Z" fill-opacity="1.000000" fill-rule="nonzero"/>
</symbol>

<symbol id="busket" viewBox="0 0 32 32">
<path d="M10.667 25.143c-1.678 0-3.033 1.371-3.033 3.047 0 1.678 1.355 3.049 3.033 3.049 1.675 0 3.047-1.371 3.047-3.049 0-1.675-1.371-3.047-3.047-3.047zM1.525 2.286c0 0.839 0.686 1.525 1.522 1.525h1.525l5.486 11.566-2.057 3.717c-1.113 2.043 0.35 4.526 2.667 4.526h16.761c0.839 0 1.522-0.686 1.522-1.522 0-0.839-0.686-1.525-1.522-1.525h-16.761l1.675-3.047h11.351c1.143 0 2.149-0.626 2.667-1.57l5.456-9.89c0.119-0.212 0.189-0.465 0.189-0.734 0-0.838-0.677-1.517-1.514-1.52h-22.553l-1.019-2.181c-0.248-0.518-0.767-0.869-1.369-0.869-0.001 0-0.002 0-0.003 0h-2.503c-0.834 0-1.52 0.686-1.52 1.525zM25.904 25.143c-1.675 0-3.031 1.371-3.031 3.047 0 1.678 1.355 3.049 3.031 3.049s3.047-1.371 3.047-3.049c0-1.675-1.371-3.047-3.047-3.047z"></path>
</symbol>


<symbol id="bottle" viewBox="0 0 27 32">
<path d="M18.286 12.389v-8.576h1.525c0.842 0 1.525-0.683 1.525-1.525s-0.683-1.525-1.525-1.525v0h-12.192c-0.842 0-1.525 0.683-1.525 1.525s0.683 1.525 1.525 1.525v0h1.525v8.576l-7.966 11.703c-2.064 3.035 0.11 7.145 3.781 7.145h17.511c3.671 0 5.845-4.11 3.778-7.145l-7.961-11.701z"></path>
</symbol>


<symbol id="bag" viewBox="0 0 27 32">
<path d="M19.81 21.333h-4.571v4.571h-3.049v-4.571h-4.571v-3.047h4.571v-4.571h3.049v4.571h4.571zM27.429 7.618h-4.039l1.753-4.8-3.582-1.294-2.224 6.094h-19.337v3.049l3.047 9.143-3.047 9.143v3.047h27.429v-3.047l-3.047-9.143 3.047-9.143v-3.049z"></path>
</symbol>

<symbol id="users" viewBox="0 0 41 32">
<path d="M28.122 27.151v3.881h-27.153v-3.881s0-7.756 13.577-7.756 13.577 7.756 13.577 7.756zM21.335 8.727c0-3.749-3.039-6.788-6.788-6.788s-6.788 3.039-6.788 6.788v0c0 3.749 3.039 6.788 6.788 6.788s6.788-3.039 6.788-6.788v0zM28.006 19.395c2.341 1.825 3.867 4.6 3.994 7.736l0.001 0.020v3.881h7.759v-3.881s0-7.040-11.753-7.756zM26.182 1.94c-0.012-0-0.025-0-0.039-0-1.384 0-2.668 0.428-3.727 1.158l0.022-0.014c1.133 1.566 1.812 3.526 1.812 5.644s-0.679 4.077-1.831 5.672l0.020-0.028c1.037 0.716 2.321 1.143 3.705 1.143 0.014 0 0.027-0 0.041-0h-0.002c3.748 0 6.787-3.039 6.787-6.787s-3.039-6.787-6.787-6.787v0z"></path>
</symbol>

<symbol id="chevron-up" viewBox="0 0 24 24">
<path d="M18.707 14.293l-6-6c-0.391-0.391-1.024-0.391-1.414 0l-6 6c-0.391 0.391-0.391 1.024 0 1.414s1.024 0.391 1.414 0l5.293-5.293 5.293 5.293c0.391 0.391 1.024 0.391 1.414 0s0.391-1.024 0-1.414z"></path>
</symbol>

<symbol id="chevron-down" viewBox="0 0 24 24">
<path d="M5.293 9.707l6 6c0.391 0.391 1.024 0.391 1.414 0l6-6c0.391-0.391 0.391-1.024 0-1.414s-1.024-0.391-1.414 0l-5.293 5.293-5.293-5.293c-0.391-0.391-1.024-0.391-1.414 0s-0.391 1.024 0 1.414z"></path>
</symbol>

<symbol id="menu-burger" viewBox="0 0 24 24">
<path d="M3 13h18c0.552 0 1-0.448 1-1s-0.448-1-1-1h-18c-0.552 0-1 0.448-1 1s0.448 1 1 1zM3 7h18c0.552 0 1-0.448 1-1s-0.448-1-1-1h-18c-0.552 0-1 0.448-1 1s0.448 1 1 1zM3 19h18c0.552 0 1-0.448 1-1s-0.448-1-1-1h-18c-0.552 0-1 0.448-1 1s0.448 1 1 1z"></path>
</symbol>

<symbol id="phone" viewBox="0 0 30 32">
<path fill="#fff" style="fill: var(--color1, #fff)" d="M4.571 0.761c-2.525 0-4.571 2.047-4.571 4.571v0 21.335c0 2.525 2.047 4.571 4.571 4.571v0h9.143c2.525 0 4.571-2.047 4.571-4.571v0-21.335c0-2.525-2.047-4.571-4.571-4.571v0h-9.143zM20.256 8.827c0.276-0.276 0.657-0.446 1.078-0.446s0.802 0.171 1.078 0.446v0l6.094 6.096c0.275 0.276 0.445 0.656 0.445 1.077s-0.17 0.801-0.445 1.077l-6.094 6.096c-0.273 0.26-0.643 0.421-1.051 0.421-0.842 0-1.525-0.683-1.525-1.525 0-0.408 0.16-0.778 0.421-1.052l-0.001 0.001 3.495-3.493h-13.083c-0.842 0-1.525-0.683-1.525-1.525s0.683-1.525 1.525-1.525h13.083l-3.495-3.493c-0.276-0.276-0.446-0.657-0.446-1.078s0.171-0.802 0.446-1.078v0z"></path>
</symbol>

<symbol id="coins" viewBox="0 0 14 14">
<g fill="none" stroke="currentColor" stroke-linecap="round" stroke-linejoin="round">
<ellipse cx="9" cy="5.5" rx="4.5" ry="2"/>
<path d="M4.5 5.5v6c0 1.1 2 2 4.5 2s4.5-.9 4.5-2v-6"/>
<path d="M13.5 8.5c0 1.1-2 2-4.5 2s-4.5-.9-4.5-2m4.4-7A6.77 6.77 0 0 0 5 .5C2.51.5.5 1.4.5 2.5c0 .59.58 1.12 1.5 1.5"/><path d="M2 10C1.08 9.62.5 9.09.5 8.5v-6"/><path d="M2 7C1.08 6.62.5 6.09.5 5.5"/>
</g>
</symbol>

<symbol id="customers" viewBox="0 0 24 24">
<path fill="none" stroke="currentColor" stroke-linecap="round" stroke-linejoin="round" stroke-width="2" d="M21 20c0-1.742-1.67-3.223-4-3.773M15 20c0-2.21-2.686-4-6-4s-6 1.79-6 4m12-7a4 4 0 0 0 0-8m-6 8a4 4 0 1 1 0-8a4 4 0 0 1 0 8"/>
</symbol>

<symbol id="filter" viewBox="0 0 24 24">
<path d="M19.845 4l-6.609 7.814c-0.147 0.173-0.236 0.399-0.236 0.646v6.922l-2-1v-5.922c0.001-0.227-0.077-0.457-0.236-0.646l-6.609-7.814zM22 2h-20c-0.552 0-1 0.448-1 1 0 0.247 0.089 0.473 0.236 0.646l7.764 9.18v6.174c0 0.389 0.222 0.727 0.553 0.894l4 2c0.494 0.247 1.095 0.047 1.342-0.447 0.072-0.146 0.106-0.301 0.105-0.447v-8.174l7.764-9.18c0.357-0.422 0.304-1.053-0.118-1.409-0.189-0.16-0.419-0.238-0.646-0.237z"></path>
</symbol>

<symbol id="add" viewBox="0 0 24 24">
<path d="M5 13h6v6c0 0.552 0.448 1 1 1s1-0.448 1-1v-6h6c0.552 0 1-0.448 1-1s-0.448-1-1-1h-6v-6c0-0.552-0.448-1-1-1s-1 0.448-1 1v6h-6c-0.552 0-1 0.448-1 1s0.448 1 1 1z"></path>
</symbol>

<symbol id="edit" viewBox="0 0 24 24">
<path d="M16.293 2.293l-13.5 13.5c-0.117 0.116-0.21 0.268-0.258 0.444l-1.5 5.5c-0.046 0.163-0.049 0.346 0 0.526 0.145 0.533 0.695 0.847 1.228 0.702l5.5-1.5c0.159-0.042 0.315-0.129 0.444-0.258l13.5-13.5c0.747-0.747 1.121-1.729 1.121-2.707s-0.374-1.96-1.121-2.707-1.729-1.121-2.707-1.121-1.96 0.374-2.707 1.121zM17.707 3.707c0.357-0.357 0.824-0.535 1.293-0.535s0.936 0.178 1.293 0.536 0.535 0.823 0.535 1.292-0.178 0.936-0.535 1.293l-13.312 13.312-3.556 0.97 0.97-3.555z"></path>
</symbol>

<symbol id="delete" viewBox="0 0 24 24">
<path d="M18 7v13c0 0.276-0.111 0.525-0.293 0.707s-0.431 0.293-0.707 0.293h-10c-0.276 0-0.525-0.111-0.707-0.293s-0.293-0.431-0.293-0.707v-13zM17 5v-1c0-0.828-0.337-1.58-0.879-2.121s-1.293-0.879-2.121-0.879h-4c-0.828 0-1.58 0.337-2.121 0.879s-0.879 1.293-0.879 2.121v1h-4c-0.552 0-1 0.448-1 1s0.448 1 1 1h1v13c0 0.828 0.337 1.58 0.879 2.121s1.293 0.879 2.121 0.879h10c0.828 0 1.58-0.337 2.121-0.879s0.879-1.293 0.879-2.121v-13h1c0.552 0 1-0.448 1-1s-0.448-1-1-1zM9 5v-1c0-0.276 0.111-0.525 0.293-0.707s0.431-0.293 0.707-0.293h4c0.276 0 0.525 0.111 0.707 0.293s0.293 0.431 0.293 0.707v1zM9 11v6c0 0.552 0.448 1 1 1s1-0.448 1-1v-6c0-0.552-0.448-1-1-1s-1 0.448-1 1zM13 11v6c0 0.552 0.448 1 1 1s1-0.448 1-1v-6c0-0.552-0.448-1-1-1s-1 0.448-1 1z"></path>
</symbol>

<symbol id="calendar" viewBox="0 0 24 24">
<path d="M7 2v1h-2c-0.828 0-1.58 0.337-2.121 0.879s-0.879 1.293-0.879 2.121v14c0 0.828 0.337 1.58 0.879 2.121s1.293 0.879 2.121 0.879h14c0.828 0 1.58-0.337 2.121-0.879s0.879-1.293 0.879-2.121v-14c0-0.828-0.337-1.58-0.879-2.121s-1.293-0.879-2.121-0.879h-2v-1c0-0.552-0.448-1-1-1s-1 0.448-1 1v1h-6v-1c0-0.552-0.448-1-1-1s-1 0.448-1 1zM20 9h-16v-3c0-0.276 0.111-0.525 0.293-0.707s0.431-0.293 0.707-0.293h2v1c0 0.552 0.448 1 1 1s1-0.448 1-1v-1h6v1c0 0.552 0.448 1 1 1s1-0.448 1-1v-1h2c0.276 0 0.525 0.111 0.707 0.293s0.293 0.431 0.293 0.707zM4 11h16v9c0 0.276-0.111 0.525-0.293 0.707s-0.431 0.293-0.707 0.293h-14c-0.276 0-0.525-0.111-0.707-0.293s-0.293-0.431-0.293-0.707z"></path>
</symbol>

</defs>
</svg>